<svg width="100" height="30" viewBox="0 0 100 30" fill="none" xmlns="http://www.w3.org/2000/svg">
<path d="M8.131 21.17C7.19033 21.17 6.43667 20.8413 5.87 20.184C5.30333 19.5267 5.02 18.637 5.02 17.515V15.135C5.02 14.0243 5.30333 13.1403 5.87 12.483C6.43667 11.8143 7.19033 11.48 8.131 11.48C8.90167 11.48 9.508 11.7067 9.95 12.16C10.392 12.602 10.613 13.2253 10.613 14.03L10.018 13.435H10.613L10.528 11.14V8.59H13.078V21H10.613V19.215H10.018L10.613 18.62C10.613 19.4247 10.392 20.0537 9.95 20.507C9.508 20.949 8.90167 21.17 8.131 21.17ZM9.049 18.96C9.51367 18.96 9.87633 18.8297 10.137 18.569C10.3977 18.297 10.528 17.9173 10.528 17.43V15.22C10.528 14.7327 10.3977 14.3587 10.137 14.098C9.87633 13.826 9.51367 13.69 9.049 13.69C8.573 13.69 8.20467 13.826 7.944 14.098C7.69467 14.3587 7.57 14.7327 7.57 15.22V17.43C7.57 17.9173 7.69467 18.297 7.944 18.569C8.20467 18.8297 8.573 18.96 9.049 18.96ZM19.3104 21.17C18.483 21.17 17.7577 21.017 17.1344 20.711C16.5224 20.3937 16.0464 19.9573 15.7064 19.402C15.3777 18.8353 15.2134 18.178 15.2134 17.43V15.22C15.2134 14.472 15.3777 13.8203 15.7064 13.265C16.0464 12.6983 16.5224 12.262 17.1344 11.956C17.7577 11.6387 18.483 11.48 19.3104 11.48C20.1377 11.48 20.8517 11.6387 21.4524 11.956C22.0644 12.262 22.5347 12.6983 22.8634 13.265C23.2034 13.8203 23.3734 14.472 23.3734 15.22V16.92H17.6444V17.43C17.6444 18.0193 17.786 18.467 18.0694 18.773C18.3527 19.0677 18.7777 19.215 19.3444 19.215C19.741 19.215 20.0584 19.147 20.2964 19.011C20.5457 18.875 20.71 18.688 20.7894 18.45H23.2884C23.0844 19.266 22.6197 19.9233 21.8944 20.422C21.1804 20.9207 20.319 21.17 19.3104 21.17ZM20.9424 15.611V15.186C20.9424 14.608 20.8064 14.166 20.5344 13.86C20.2737 13.554 19.8657 13.401 19.3104 13.401C18.755 13.401 18.3357 13.5597 18.0524 13.877C17.7804 14.1943 17.6444 14.642 17.6444 15.22V15.475L21.1124 15.441L20.9424 15.611ZM27.9057 21L24.8457 11.65H27.4807L29.0447 16.903C29.1354 17.2203 29.2261 17.566 29.3167 17.94C29.4074 18.314 29.4754 18.6143 29.5207 18.841C29.5774 18.6143 29.6454 18.314 29.7247 17.94C29.8154 17.566 29.9004 17.226 29.9797 16.92L31.5267 11.65H34.1277L31.1017 21H27.9057ZM37.8951 21V15.05H35.4131V12.755H37.8951V11.48C37.8951 10.6073 38.1897 9.91033 38.7791 9.389C39.3797 8.85633 40.1617 8.59 41.1251 8.59H43.8621V10.8H41.2101C40.9834 10.8 40.7964 10.8737 40.6491 11.021C40.5131 11.157 40.4451 11.3383 40.4451 11.565V12.755H43.8621V15.05H40.4451V21H37.8951ZM48.6664 21.17C47.7258 21.17 46.9778 20.915 46.4224 20.405C45.8784 19.895 45.6064 19.2037 45.6064 18.331C45.6064 17.3903 45.9294 16.6707 46.5754 16.172C47.2328 15.662 48.1734 15.407 49.3974 15.407H51.3354V14.71C51.3354 14.3473 51.2051 14.0583 50.9444 13.843C50.6951 13.6277 50.3551 13.52 49.9244 13.52C49.5278 13.52 49.1991 13.6107 48.9384 13.792C48.6778 13.9733 48.5191 14.2227 48.4624 14.54H45.9974C46.0994 13.5993 46.5074 12.857 47.2214 12.313C47.9468 11.7577 48.8761 11.48 50.0094 11.48C51.1994 11.48 52.1401 11.7747 52.8314 12.364C53.5341 12.942 53.8854 13.724 53.8854 14.71V21H51.4204V19.47H51.0124L51.4374 18.875C51.4374 19.5777 51.1824 20.1387 50.6724 20.558C50.1738 20.966 49.5051 21.17 48.6664 21.17ZM49.6184 19.3C50.1171 19.3 50.5251 19.1697 50.8424 18.909C51.1711 18.637 51.3354 18.2857 51.3354 17.855V16.852H49.4484C49.0631 16.852 48.7514 16.9653 48.5134 17.192C48.2754 17.4073 48.1564 17.6963 48.1564 18.059C48.1564 18.4443 48.2868 18.7503 48.5474 18.977C48.8081 19.1923 49.1651 19.3 49.6184 19.3ZM56.1568 21V18.688H59.3868V13.945H56.5818V11.65H61.7668V18.688H64.4868V21H56.1568ZM60.4068 10.171C59.9421 10.171 59.5681 10.052 59.2848 9.814C59.0128 9.576 58.8768 9.253 58.8768 8.845C58.8768 8.437 59.0128 8.114 59.2848 7.876C59.5681 7.638 59.9421 7.519 60.4068 7.519C60.8715 7.519 61.2398 7.638 61.5118 7.876C61.7951 8.114 61.9368 8.437 61.9368 8.845C61.9368 9.253 61.7951 9.576 61.5118 9.814C61.2398 10.052 60.8715 10.171 60.4068 10.171ZM66.3502 21V18.79L70.9742 13.86H66.5202V11.65H73.9832V13.86L69.3592 18.79H74.1702V21H66.3502ZM79.2465 21.17C78.3058 21.17 77.5578 20.915 77.0025 20.405C76.4585 19.895 76.1865 19.2037 76.1865 18.331C76.1865 17.3903 76.5095 16.6707 77.1555 16.172C77.8128 15.662 78.7535 15.407 79.9775 15.407H81.9155V14.71C81.9155 14.3473 81.7852 14.0583 81.5245 13.843C81.2752 13.6277 80.9352 13.52 80.5045 13.52C80.1078 13.52 79.7792 13.6107 79.5185 13.792C79.2578 13.9733 79.0992 14.2227 79.0425 14.54H76.5775C76.6795 13.5993 77.0875 12.857 77.8015 12.313C78.5268 11.7577 79.4562 11.48 80.5895 11.48C81.7795 11.48 82.7202 11.7747 83.4115 12.364C84.1142 12.942 84.4655 13.724 84.4655 14.71V21H82.0005V19.47H81.5925L82.0175 18.875C82.0175 19.5777 81.7625 20.1387 81.2525 20.558C80.7538 20.966 80.0852 21.17 79.2465 21.17ZM80.1985 19.3C80.6972 19.3 81.1052 19.1697 81.4225 18.909C81.7512 18.637 81.9155 18.2857 81.9155 17.855V16.852H80.0285C79.6432 16.852 79.3315 16.9653 79.0935 17.192C78.8555 17.4073 78.7365 17.6963 78.7365 18.059C78.7365 18.4443 78.8668 18.7503 79.1275 18.977C79.3882 19.1923 79.7452 19.3 80.1985 19.3ZM86.6689 21V11.65H89.1339V13.435H89.8819L89.1339 14.03C89.1339 13.2367 89.3605 12.6133 89.8139 12.16C90.2672 11.7067 90.8792 11.48 91.6499 11.48C92.5565 11.48 93.2819 11.7973 93.8259 12.432C94.3812 13.0667 94.6589 13.911 94.6589 14.965V21H92.1089V15.22C92.1089 14.7327 91.9785 14.3587 91.7179 14.098C91.4685 13.826 91.1115 13.69 90.6469 13.69C90.1935 13.69 89.8422 13.826 89.5929 14.098C89.3435 14.3587 89.2189 14.7327 89.2189 15.22V21H86.6689Z" fill="white"/>
</svg>
