<svg width="141" height="34" viewBox="0 0 141 34" fill="none" xmlns="http://www.w3.org/2000/svg">
<g clip-path="url(#clip0_415_6)">
<path d="M7.318 26.26C5.87933 26.26 4.72667 25.7573 3.86 24.752C2.99333 23.7467 2.56 22.386 2.56 20.67V17.03C2.56 15.3313 2.99333 13.9793 3.86 12.974C4.72667 11.9513 5.87933 11.44 7.318 11.44C8.49667 11.44 9.424 11.7867 10.1 12.48C10.776 13.156 11.114 14.1093 11.114 15.34L10.204 14.43H11.114L10.984 10.92V7.02H14.884V26H11.114V23.27H10.204L11.114 22.36C11.114 23.5907 10.776 24.5527 10.1 25.246C9.424 25.922 8.49667 26.26 7.318 26.26ZM8.722 22.88C9.43267 22.88 9.98733 22.6807 10.386 22.282C10.7847 21.866 10.984 21.2853 10.984 20.54V17.16C10.984 16.4147 10.7847 15.8427 10.386 15.444C9.98733 15.028 9.43267 14.82 8.722 14.82C7.994 14.82 7.43067 15.028 7.032 15.444C6.65067 15.8427 6.46 16.4147 6.46 17.16V20.54C6.46 21.2853 6.65067 21.866 7.032 22.282C7.43067 22.6807 7.994 22.88 8.722 22.88ZM24.4158 26.26C23.1505 26.26 22.0412 26.026 21.0878 25.558C20.1518 25.0727 19.4238 24.4053 18.9038 23.556C18.4012 22.6893 18.1498 21.684 18.1498 20.54V17.16C18.1498 16.016 18.4012 15.0193 18.9038 14.17C19.4238 13.3033 20.1518 12.636 21.0878 12.168C22.0412 11.6827 23.1505 11.44 24.4158 11.44C25.6812 11.44 26.7732 11.6827 27.6918 12.168C28.6278 12.636 29.3472 13.3033 29.8498 14.17C30.3698 15.0193 30.6298 16.016 30.6298 17.16V19.76H21.8678V20.54C21.8678 21.4413 22.0845 22.126 22.5178 22.594C22.9512 23.0447 23.6012 23.27 24.4678 23.27C25.0745 23.27 25.5598 23.166 25.9238 22.958C26.3052 22.75 26.5565 22.464 26.6778 22.1H30.4998C30.1878 23.348 29.4772 24.3533 28.3678 25.116C27.2758 25.8787 25.9585 26.26 24.4158 26.26ZM26.9118 17.758V17.108C26.9118 16.224 26.7038 15.548 26.2878 15.08C25.8892 14.612 25.2652 14.378 24.4158 14.378C23.5665 14.378 22.9252 14.6207 22.4918 15.106C22.0758 15.5913 21.8678 16.276 21.8678 17.16V17.55L27.1718 17.498L26.9118 17.758ZM37.5617 26L32.8817 11.7H36.9117L39.3037 19.734C39.4424 20.2193 39.581 20.748 39.7197 21.32C39.8584 21.892 39.9624 22.3513 40.0317 22.698C40.1184 22.3513 40.2224 21.892 40.3437 21.32C40.4824 20.748 40.6124 20.228 40.7337 19.76L43.0997 11.7H47.0777L42.4497 26H37.5617ZM52.8395 26V16.9H49.0435V13.39H52.8395V11.44C52.8395 10.1053 53.2902 9.03933 54.1915 8.242C55.1102 7.42733 56.3062 7.02 57.7795 7.02H61.9655V10.4H57.9095C57.5629 10.4 57.2769 10.5127 57.0515 10.738C56.8435 10.946 56.7395 11.2233 56.7395 11.57V13.39H61.9655V16.9H56.7395V26H52.8395ZM69.3134 26.26C67.8747 26.26 66.7307 25.87 65.8814 25.09C65.0494 24.31 64.6334 23.2527 64.6334 21.918C64.6334 20.4793 65.1274 19.3787 66.1154 18.616C67.1207 17.836 68.5594 17.446 70.4314 17.446H73.3954V16.38C73.3954 15.8253 73.196 15.3833 72.7974 15.054C72.416 14.7247 71.896 14.56 71.2374 14.56C70.6307 14.56 70.128 14.6987 69.7294 14.976C69.3307 15.2533 69.088 15.6347 69.0014 16.12H65.2314C65.3874 14.6813 66.0114 13.546 67.1034 12.714C68.2127 11.8647 69.634 11.44 71.3674 11.44C73.1874 11.44 74.626 11.8907 75.6834 12.792C76.758 13.676 77.2954 14.872 77.2954 16.38V26H73.5254V23.66H72.9014L73.5514 22.75C73.5514 23.8247 73.1614 24.6827 72.3814 25.324C71.6187 25.948 70.596 26.26 69.3134 26.26ZM70.7694 23.4C71.532 23.4 72.156 23.2007 72.6414 22.802C73.144 22.386 73.3954 21.8487 73.3954 21.19V19.656H70.5094C69.92 19.656 69.4434 19.8293 69.0794 20.176C68.7154 20.5053 68.5334 20.9473 68.5334 21.502C68.5334 22.0913 68.7327 22.5593 69.1314 22.906C69.53 23.2353 70.076 23.4 70.7694 23.4ZM80.7692 26V22.464H85.7092V15.21H81.4192V11.7H89.3492V22.464H93.5092V26H80.7692ZM87.2692 9.438C86.5586 9.438 85.9866 9.256 85.5532 8.892C85.1372 8.528 84.9292 8.034 84.9292 7.41C84.9292 6.786 85.1372 6.292 85.5532 5.928C85.9866 5.564 86.5586 5.382 87.2692 5.382C87.9799 5.382 88.5432 5.564 88.9592 5.928C89.3926 6.292 89.6092 6.786 89.6092 7.41C89.6092 8.034 89.3926 8.528 88.9592 8.892C88.5432 9.256 87.9799 9.438 87.2692 9.438ZM96.3591 26V22.62L103.431 15.08H96.6191V11.7H108.033V15.08L100.961 22.62H108.319V26H96.3591ZM116.083 26.26C114.644 26.26 113.5 25.87 112.651 25.09C111.819 24.31 111.403 23.2527 111.403 21.918C111.403 20.4793 111.897 19.3787 112.885 18.616C113.89 17.836 115.329 17.446 117.201 17.446H120.165V16.38C120.165 15.8253 119.966 15.3833 119.567 15.054C119.186 14.7247 118.666 14.56 118.007 14.56C117.4 14.56 116.898 14.6987 116.499 14.976C116.1 15.2533 115.858 15.6347 115.771 16.12H112.001C112.157 14.6813 112.781 13.546 113.873 12.714C114.982 11.8647 116.404 11.44 118.137 11.44C119.957 11.44 121.396 11.8907 122.453 12.792C123.528 13.676 124.065 14.872 124.065 16.38V26H120.295V23.66H119.671L120.321 22.75C120.321 23.8247 119.931 24.6827 119.151 25.324C118.388 25.948 117.366 26.26 116.083 26.26ZM117.539 23.4C118.302 23.4 118.926 23.2007 119.411 22.802C119.914 22.386 120.165 21.8487 120.165 21.19V19.656H117.279C116.69 19.656 116.213 19.8293 115.849 20.176C115.485 20.5053 115.303 20.9473 115.303 21.502C115.303 22.0913 115.502 22.5593 115.901 22.906C116.3 23.2353 116.846 23.4 117.539 23.4ZM127.435 26V11.7H131.205V14.43H132.349L131.205 15.34C131.205 14.1267 131.551 13.1733 132.245 12.48C132.938 11.7867 133.874 11.44 135.053 11.44C136.439 11.44 137.549 11.9253 138.381 12.896C139.23 13.8667 139.655 15.158 139.655 16.77V26H135.755V17.16C135.755 16.4147 135.555 15.8427 135.157 15.444C134.775 15.028 134.229 14.82 133.519 14.82C132.825 14.82 132.288 15.028 131.907 15.444C131.525 15.8427 131.335 16.4147 131.335 17.16V26H127.435Z" fill="white"/>
</g>
<defs>
<clipPath id="clip0_415_6">
<rect width="141" height="34" fill="white"/>
</clipPath>
</defs>
</svg>
