<svg width="108" height="26" viewBox="0 0 108 26" fill="none" xmlns="http://www.w3.org/2000/svg">
<g clip-path="url(#clip0_415_6)">
<path d="M4.86 20.2C3.75333 20.2 2.86667 19.8133 2.2 19.04C1.53333 18.2667 1.2 17.22 1.2 15.9V13.1C1.2 11.7933 1.53333 10.7533 2.2 9.98C2.86667 9.19333 3.75333 8.8 4.86 8.8C5.76667 8.8 6.48 9.06667 7 9.6C7.52 10.12 7.78 10.8533 7.78 11.8L7.08 11.1H7.78L7.68 8.4V5.4H10.68V20H7.78V17.9H7.08L7.78 17.2C7.78 18.1467 7.52 18.8867 7 19.42C6.48 19.94 5.76667 20.2 4.86 20.2ZM5.94 17.6C6.48667 17.6 6.91333 17.4467 7.22 17.14C7.52667 16.82 7.68 16.3733 7.68 15.8V13.2C7.68 12.6267 7.52667 12.1867 7.22 11.88C6.91333 11.56 6.48667 11.4 5.94 11.4C5.38 11.4 4.94667 11.56 4.64 11.88C4.34667 12.1867 4.2 12.6267 4.2 13.2V15.8C4.2 16.3733 4.34667 16.82 4.64 17.14C4.94667 17.4467 5.38 17.6 5.94 17.6ZM18.0122 20.2C17.0389 20.2 16.1855 20.02 15.4522 19.66C14.7322 19.2867 14.1722 18.7733 13.7722 18.12C13.3855 17.4533 13.1922 16.68 13.1922 15.8V13.2C13.1922 12.32 13.3855 11.5533 13.7722 10.9C14.1722 10.2333 14.7322 9.72 15.4522 9.36C16.1855 8.98667 17.0389 8.8 18.0122 8.8C18.9855 8.8 19.8255 8.98667 20.5322 9.36C21.2522 9.72 21.8055 10.2333 22.1922 10.9C22.5922 11.5533 22.7922 12.32 22.7922 13.2V15.2H16.0522V15.8C16.0522 16.4933 16.2189 17.02 16.5522 17.38C16.8855 17.7267 17.3855 17.9 18.0522 17.9C18.5189 17.9 18.8922 17.82 19.1722 17.66C19.4655 17.5 19.6589 17.28 19.7522 17H22.6922C22.4522 17.96 21.9055 18.7333 21.0522 19.32C20.2122 19.9067 19.1989 20.2 18.0122 20.2ZM19.9322 13.66V13.16C19.9322 12.48 19.7722 11.96 19.4522 11.6C19.1455 11.24 18.6655 11.06 18.0122 11.06C17.3589 11.06 16.8655 11.2467 16.5322 11.62C16.2122 11.9933 16.0522 12.52 16.0522 13.2V13.5L20.1322 13.46L19.9322 13.66ZM28.1244 20L24.5244 9H27.6244L29.4644 15.18C29.571 15.5533 29.6777 15.96 29.7844 16.4C29.891 16.84 29.971 17.1933 30.0244 17.46C30.091 17.1933 30.171 16.84 30.2644 16.4C30.371 15.96 30.471 15.56 30.5644 15.2L32.3844 9H35.4444L31.8844 20H28.1244ZM39.8766 20V13H36.9566V10.3H39.8766V8.8C39.8766 7.77333 40.2232 6.95333 40.9166 6.34C41.6232 5.71333 42.5432 5.4 43.6766 5.4H46.8966V8H43.7766C43.5099 8 43.2899 8.08667 43.1166 8.26C42.9566 8.42 42.8766 8.63333 42.8766 8.9V10.3H46.8966V13H42.8766V20H39.8766ZM52.5488 20.2C51.4421 20.2 50.5621 19.9 49.9088 19.3C49.2688 18.7 48.9488 17.8867 48.9488 16.86C48.9488 15.7533 49.3288 14.9067 50.0888 14.32C50.8621 13.72 51.9688 13.42 53.4088 13.42H55.6888V12.6C55.6888 12.1733 55.5354 11.8333 55.2288 11.58C54.9354 11.3267 54.5354 11.2 54.0288 11.2C53.5621 11.2 53.1754 11.3067 52.8688 11.52C52.5621 11.7333 52.3754 12.0267 52.3088 12.4H49.4088C49.5288 11.2933 50.0088 10.42 50.8488 9.78C51.7021 9.12667 52.7954 8.8 54.1288 8.8C55.5288 8.8 56.6354 9.14667 57.4488 9.84C58.2754 10.52 58.6888 11.44 58.6888 12.6V20H55.7888V18.2H55.3088L55.8088 17.5C55.8088 18.3267 55.5088 18.9867 54.9088 19.48C54.3221 19.96 53.5354 20.2 52.5488 20.2ZM53.6688 18C54.2554 18 54.7354 17.8467 55.1088 17.54C55.4954 17.22 55.6888 16.8067 55.6888 16.3V15.12H53.4688C53.0154 15.12 52.6488 15.2533 52.3688 15.52C52.0888 15.7733 51.9488 16.1133 51.9488 16.54C51.9488 16.9933 52.1021 17.3533 52.4088 17.62C52.7154 17.8733 53.1354 18 53.6688 18ZM61.3609 20V17.28H65.1609V11.7H61.8609V9H67.9609V17.28H71.1609V20H61.3609ZM66.3609 7.26C65.8143 7.26 65.3743 7.12 65.0409 6.84C64.7209 6.56 64.5609 6.18 64.5609 5.7C64.5609 5.22 64.7209 4.84 65.0409 4.56C65.3743 4.28 65.8143 4.14 66.3609 4.14C66.9076 4.14 67.3409 4.28 67.6609 4.56C67.9943 4.84 68.1609 5.22 68.1609 5.7C68.1609 6.18 67.9943 6.56 67.6609 6.84C67.3409 7.12 66.9076 7.26 66.3609 7.26ZM73.3531 20V17.4L78.7931 11.6H73.5531V9H82.3331V11.6L76.8931 17.4H82.5531V20H73.3531ZM88.5253 20.2C87.4186 20.2 86.5386 19.9 85.8853 19.3C85.2453 18.7 84.9253 17.8867 84.9253 16.86C84.9253 15.7533 85.3053 14.9067 86.0653 14.32C86.8386 13.72 87.9453 13.42 89.3853 13.42H91.6653V12.6C91.6653 12.1733 91.512 11.8333 91.2053 11.58C90.912 11.3267 90.512 11.2 90.0053 11.2C89.5386 11.2 89.152 11.3067 88.8453 11.52C88.5386 11.7333 88.352 12.0267 88.2853 12.4H85.3853C85.5053 11.2933 85.9853 10.42 86.8253 9.78C87.6786 9.12667 88.772 8.8 90.1053 8.8C91.5053 8.8 92.612 9.14667 93.4253 9.84C94.252 10.52 94.6653 11.44 94.6653 12.6V20H91.7653V18.2H91.2853L91.7853 17.5C91.7853 18.3267 91.4853 18.9867 90.8853 19.48C90.2986 19.96 89.512 20.2 88.5253 20.2ZM89.6453 18C90.232 18 90.712 17.8467 91.0853 17.54C91.472 17.22 91.6653 16.8067 91.6653 16.3V15.12H89.4453C88.992 15.12 88.6253 15.2533 88.3453 15.52C88.0653 15.7733 87.9253 16.1133 87.9253 16.54C87.9253 16.9933 88.0786 17.3533 88.3853 17.62C88.692 17.8733 89.112 18 89.6453 18ZM97.2575 20V9H100.158V11.1H101.038L100.158 11.8C100.158 10.8667 100.424 10.1333 100.958 9.6C101.491 9.06667 102.211 8.8 103.118 8.8C104.184 8.8 105.038 9.17333 105.678 9.92C106.331 10.6667 106.658 11.66 106.658 12.9V20H103.658V13.2C103.658 12.6267 103.504 12.1867 103.198 11.88C102.904 11.56 102.484 11.4 101.938 11.4C101.404 11.4 100.991 11.56 100.698 11.88C100.404 12.1867 100.258 12.6267 100.258 13.2V20H97.2575Z" fill="white"/>
</g>
<defs>
<clipPath id="clip0_415_6">
<rect width="108" height="26" fill="white"/>
</clipPath>
</defs>
</svg>
