<svg width="30" height="30" viewBox="0 0 30 30" fill="none" xmlns="http://www.w3.org/2000/svg">
<rect width="30" height="30" rx="15" fill="#0F5C2E"/>
<g clip-path="url(#clip0_339_16)">
<path d="M9.16667 7.08438C9.16639 7.63691 8.94663 8.1667 8.55574 8.55721C8.16484 8.94771 7.63483 9.16694 7.08229 9.16667C6.52976 9.16639 5.99996 8.94663 5.60946 8.55574C5.21895 8.16484 4.99972 7.63483 5 7.08229C5.00028 6.52976 5.22003 5.99996 5.61093 5.60946C6.00183 5.21895 6.53184 4.99972 7.08438 5C7.63691 5.00028 8.1667 5.22003 8.55721 5.61093C8.94771 6.00183 9.16694 6.53184 9.16667 7.08438ZM9.22917 10.7094H5.0625V23.751H9.22917V10.7094ZM15.8125 10.7094H11.6667V23.751H15.7708V16.9073C15.7708 13.0948 20.7396 12.7406 20.7396 16.9073V23.751H24.8542V15.4906C24.8542 9.06354 17.5 9.30312 15.7708 12.4594L15.8125 10.7094Z" fill="white"/>
</g>
<defs>
<clipPath id="clip0_339_16">
<rect width="20" height="20" fill="white" transform="translate(5 5)"/>
</clipPath>
</defs>
</svg>
