<svg width="30" height="30" viewBox="0 0 30 30" fill="none" xmlns="http://www.w3.org/2000/svg">
<rect width="30" height="30" rx="15" fill="#0F5C2E"/>
<g clip-path="url(#clip0_339_22)">
<path fill-rule="evenodd" clip-rule="evenodd" d="M12.2129 5.39425C10.2801 5.95728 8.56178 7.0898 7.28225 8.64405C6.00271 10.1983 5.22133 12.1021 5.04004 14.1071H9.61147C9.87794 11.056 10.7626 8.0911 12.2115 5.39282L12.2129 5.39425ZM9.61147 15.8928H5.04004C5.22095 17.8979 6.002 19.8019 7.28128 21.3564C8.56056 22.9109 10.2787 24.0437 12.2115 24.6071C10.7626 21.9088 9.87794 18.9439 9.61147 15.8928ZM14.5029 24.9885C12.7709 22.2415 11.709 19.1258 11.4029 15.8928H18.5958C18.2897 19.1258 17.2278 22.2415 15.4958 24.9885C15.165 25.005 14.8336 25.005 14.5029 24.9885ZM17.7886 24.6057C19.7212 24.0424 21.4392 22.9098 22.7184 21.3555C23.9977 19.8013 24.7788 17.8976 24.96 15.8928H20.3886C20.1221 18.9439 19.2375 21.9088 17.7886 24.6071V24.6057ZM20.3886 14.1071H24.96C24.7791 12.102 23.9981 10.198 22.7188 8.64353C21.4395 7.08902 19.7214 5.95619 17.7886 5.39282C19.2375 8.0911 20.1221 11.056 20.3886 14.1071ZM14.5029 5.01139C14.8341 4.9949 15.166 4.9949 15.4972 5.01139C17.2287 7.75851 18.2901 10.8742 18.5958 14.1071H11.4043C11.7143 10.8542 12.7786 7.73567 14.5029 5.01139Z" fill="white"/>
</g>
<defs>
<clipPath id="clip0_339_22">
<rect width="20" height="20" fill="white" transform="translate(5 5)"/>
</clipPath>
</defs>
</svg>
